<svg xmlns="http://www.w3.org/2000/svg" width="1920" height="9.99" viewBox="0 0 1920 9.99">
  <g id="Group_668" data-name="Group 668" transform="translate(0 -1074)">
    <path id="line" d="M0,8,7.99.01l8,8L16,10H0Z" transform="translate(0 1073.99)" fill="#fff"/>
    <path id="line-2" data-name="line" d="M0,8,7.99.01l8,8L16,10H0Z" transform="translate(16 1073.99)" fill="#fff"/>
    <path id="line-3" data-name="line" d="M0,8,7.99.01l8,8L16,10H0Z" transform="translate(32 1073.99)" fill="#fff"/>
    <path id="line-4" data-name="line" d="M0,8,7.99.01l8,8L16,10H0Z" transform="translate(48 1073.99)" fill="#fff"/>
    <path id="line-5" data-name="line" d="M0,8,7.99.01l8,8L16,10H0Z" transform="translate(64 1073.99)" fill="#fff"/>
    <path id="line-6" data-name="line" d="M0,8,7.99.01l8,8L16,10H0Z" transform="translate(80 1073.99)" fill="#fff"/>
    <path id="line-7" data-name="line" d="M0,8,7.99.01l8,8L16,10H0Z" transform="translate(96 1073.99)" fill="#fff"/>
    <path id="line-8" data-name="line" d="M0,8,7.99.01l8,8L16,10H0Z" transform="translate(112 1073.99)" fill="#fff"/>
    <path id="line-9" data-name="line" d="M0,8,7.99.01l8,8L16,10H0Z" transform="translate(128 1073.99)" fill="#fff"/>
    <path id="line-10" data-name="line" d="M0,8,7.99.01l8,8L16,10H0Z" transform="translate(144 1073.99)" fill="#fff"/>
    <path id="line-11" data-name="line" d="M0,8,7.99.01l8,8L16,10H0Z" transform="translate(160 1073.99)" fill="#fff"/>
    <path id="line-12" data-name="line" d="M0,8,7.99.01l8,8L16,10H0Z" transform="translate(176 1073.99)" fill="#fff"/>
    <path id="line-13" data-name="line" d="M0,8,7.99.01l8,8L16,10H0Z" transform="translate(192 1073.99)" fill="#fff"/>
    <path id="line-14" data-name="line" d="M0,8,7.99.01l8,8L16,10H0Z" transform="translate(208 1073.99)" fill="#fff"/>
    <path id="line-15" data-name="line" d="M0,8,7.99.01l8,8L16,10H0Z" transform="translate(224 1073.99)" fill="#fff"/>
    <path id="line-16" data-name="line" d="M0,8,7.99.01l8,8L16,10H0Z" transform="translate(240 1073.99)" fill="#fff"/>
    <path id="line-17" data-name="line" d="M0,8,7.99.01l8,8L16,10H0Z" transform="translate(256 1073.99)" fill="#fff"/>
    <path id="line-18" data-name="line" d="M0,8,7.99.01l8,8L16,10H0Z" transform="translate(272 1073.99)" fill="#fff"/>
    <path id="line-19" data-name="line" d="M0,8,7.99.01l8,8L16,10H0Z" transform="translate(288 1073.99)" fill="#fff"/>
    <path id="line-20" data-name="line" d="M0,8,7.99.01l8,8L16,10H0Z" transform="translate(304 1073.99)" fill="#fff"/>
    <path id="line-21" data-name="line" d="M0,8,7.99.01l8,8L16,10H0Z" transform="translate(320 1073.99)" fill="#fff"/>
    <path id="line-22" data-name="line" d="M0,8,7.99.01l8,8L16,10H0Z" transform="translate(336 1073.99)" fill="#fff"/>
    <path id="line-23" data-name="line" d="M0,8,7.99.01l8,8L16,10H0Z" transform="translate(352 1073.99)" fill="#fff"/>
    <path id="line-24" data-name="line" d="M0,8,7.99.01l8,8L16,10H0Z" transform="translate(368 1073.99)" fill="#fff"/>
    <path id="line-25" data-name="line" d="M0,8,7.99.01l8,8L16,10H0Z" transform="translate(384 1073.99)" fill="#fff"/>
    <path id="line-26" data-name="line" d="M0,8,7.99.01l8,8L16,10H0Z" transform="translate(400 1073.99)" fill="#fff"/>
    <path id="line-27" data-name="line" d="M0,8,7.99.01l8,8L16,10H0Z" transform="translate(416 1073.99)" fill="#fff"/>
    <path id="line-28" data-name="line" d="M0,8,7.99.01l8,8L16,10H0Z" transform="translate(432 1073.99)" fill="#fff"/>
    <path id="line-29" data-name="line" d="M0,8,7.99.01l8,8L16,10H0Z" transform="translate(448 1073.99)" fill="#fff"/>
    <path id="line-30" data-name="line" d="M0,8,7.99.01l8,8L16,10H0Z" transform="translate(464 1073.99)" fill="#fff"/>
    <path id="line-31" data-name="line" d="M0,8,7.99.01l8,8L16,10H0Z" transform="translate(480 1073.99)" fill="#fff"/>
    <path id="line-32" data-name="line" d="M0,8,7.99.01l8,8L16,10H0Z" transform="translate(496 1073.99)" fill="#fff"/>
    <path id="line-33" data-name="line" d="M0,8,7.99.01l8,8L16,10H0Z" transform="translate(512 1073.99)" fill="#fff"/>
    <path id="line-34" data-name="line" d="M0,8,7.99.01l8,8L16,10H0Z" transform="translate(528 1073.99)" fill="#fff"/>
    <path id="line-35" data-name="line" d="M0,8,7.99.01l8,8L16,10H0Z" transform="translate(544 1073.99)" fill="#fff"/>
    <path id="line-36" data-name="line" d="M0,8,7.99.01l8,8L16,10H0Z" transform="translate(560 1073.99)" fill="#fff"/>
    <path id="line-37" data-name="line" d="M0,8,7.99.01l8,8L16,10H0Z" transform="translate(576 1073.99)" fill="#fff"/>
    <path id="line-38" data-name="line" d="M0,8,7.99.01l8,8L16,10H0Z" transform="translate(592 1073.99)" fill="#fff"/>
    <path id="line-39" data-name="line" d="M0,8,7.99.01l8,8L16,10H0Z" transform="translate(608 1073.99)" fill="#fff"/>
    <path id="line-40" data-name="line" d="M0,8,7.99.01l8,8L16,10H0Z" transform="translate(624 1073.99)" fill="#fff"/>
    <path id="line-41" data-name="line" d="M0,8,7.99.01l8,8L16,10H0Z" transform="translate(640 1073.99)" fill="#fff"/>
    <path id="line-42" data-name="line" d="M0,8,7.99.01l8,8L16,10H0Z" transform="translate(656 1073.99)" fill="#fff"/>
    <path id="line-43" data-name="line" d="M0,8,7.99.01l8,8L16,10H0Z" transform="translate(672 1073.99)" fill="#fff"/>
    <path id="line-44" data-name="line" d="M0,8,7.99.01l8,8L16,10H0Z" transform="translate(688 1073.99)" fill="#fff"/>
    <path id="line-45" data-name="line" d="M0,8,7.99.01l8,8L16,10H0Z" transform="translate(704 1073.99)" fill="#fff"/>
    <path id="line-46" data-name="line" d="M0,8,7.99.01l8,8L16,10H0Z" transform="translate(720 1073.99)" fill="#fff"/>
    <path id="line-47" data-name="line" d="M0,8,7.99.01l8,8L16,10H0Z" transform="translate(736 1073.99)" fill="#fff"/>
    <path id="line-48" data-name="line" d="M0,8,7.99.01l8,8L16,10H0Z" transform="translate(752 1073.99)" fill="#fff"/>
    <path id="line-49" data-name="line" d="M0,8,7.99.01l8,8L16,10H0Z" transform="translate(768 1073.99)" fill="#fff"/>
    <path id="line-50" data-name="line" d="M0,8,7.99.01l8,8L16,10H0Z" transform="translate(784 1073.99)" fill="#fff"/>
    <path id="line-51" data-name="line" d="M0,8,7.99.01l8,8L16,10H0Z" transform="translate(800 1073.99)" fill="#fff"/>
    <path id="line-52" data-name="line" d="M0,8,7.99.01l8,8L16,10H0Z" transform="translate(816 1073.99)" fill="#fff"/>
    <path id="line-53" data-name="line" d="M0,8,7.99.01l8,8L16,10H0Z" transform="translate(832 1073.99)" fill="#fff"/>
    <path id="line-54" data-name="line" d="M0,8,7.99.01l8,8L16,10H0Z" transform="translate(848 1073.99)" fill="#fff"/>
    <path id="line-55" data-name="line" d="M0,8,7.99.01l8,8L16,10H0Z" transform="translate(864 1073.99)" fill="#fff"/>
    <path id="line-56" data-name="line" d="M0,8,7.99.01l8,8L16,10H0Z" transform="translate(880 1073.99)" fill="#fff"/>
    <path id="line-57" data-name="line" d="M0,8,7.99.01l8,8L16,10H0Z" transform="translate(896 1073.99)" fill="#fff"/>
    <path id="line-58" data-name="line" d="M0,8,7.99.01l8,8L16,10H0Z" transform="translate(912 1073.99)" fill="#fff"/>
    <path id="line-59" data-name="line" d="M0,8,7.99.01l8,8L16,10H0Z" transform="translate(928 1073.99)" fill="#fff"/>
    <path id="line-60" data-name="line" d="M0,8,7.99.01l8,8L16,10H0Z" transform="translate(944 1073.99)" fill="#fff"/>
    <path id="line-61" data-name="line" d="M0,8,7.99.01l8,8L16,10H0Z" transform="translate(960 1073.99)" fill="#fff"/>
    <path id="line-62" data-name="line" d="M0,8,7.99.01l8,8L16,10H0Z" transform="translate(976 1073.99)" fill="#fff"/>
    <path id="line-63" data-name="line" d="M0,8,7.99.01l8,8L16,10H0Z" transform="translate(992 1073.99)" fill="#fff"/>
    <path id="line-64" data-name="line" d="M0,8,7.99.01l8,8L16,10H0Z" transform="translate(1008 1073.99)" fill="#fff"/>
    <path id="line-65" data-name="line" d="M0,8,7.99.01l8,8L16,10H0Z" transform="translate(1024 1073.99)" fill="#fff"/>
    <path id="line-66" data-name="line" d="M0,8,7.99.01l8,8L16,10H0Z" transform="translate(1040 1073.99)" fill="#fff"/>
    <path id="line-67" data-name="line" d="M0,8,7.99.01l8,8L16,10H0Z" transform="translate(1056 1073.99)" fill="#fff"/>
    <path id="line-68" data-name="line" d="M0,8,7.99.01l8,8L16,10H0Z" transform="translate(1072 1073.99)" fill="#fff"/>
    <path id="line-69" data-name="line" d="M0,8,7.99.01l8,8L16,10H0Z" transform="translate(1088 1073.99)" fill="#fff"/>
    <path id="line-70" data-name="line" d="M0,8,7.99.01l8,8L16,10H0Z" transform="translate(1104 1073.99)" fill="#fff"/>
    <path id="line-71" data-name="line" d="M0,8,7.99.01l8,8L16,10H0Z" transform="translate(1120 1073.99)" fill="#fff"/>
    <path id="line-72" data-name="line" d="M0,8,7.99.01l8,8L16,10H0Z" transform="translate(1136 1073.99)" fill="#fff"/>
    <path id="line-73" data-name="line" d="M0,8,7.99.01l8,8L16,10H0Z" transform="translate(1152 1073.99)" fill="#fff"/>
    <path id="line-74" data-name="line" d="M0,8,7.99.01l8,8L16,10H0Z" transform="translate(1168 1073.99)" fill="#fff"/>
    <path id="line-75" data-name="line" d="M0,8,7.99.01l8,8L16,10H0Z" transform="translate(1184 1073.99)" fill="#fff"/>
    <path id="line-76" data-name="line" d="M0,8,7.99.01l8,8L16,10H0Z" transform="translate(1200 1073.99)" fill="#fff"/>
    <path id="line-77" data-name="line" d="M0,8,7.99.01l8,8L16,10H0Z" transform="translate(1216 1073.99)" fill="#fff"/>
    <path id="line-78" data-name="line" d="M0,8,7.99.01l8,8L16,10H0Z" transform="translate(1232 1073.99)" fill="#fff"/>
    <path id="line-79" data-name="line" d="M0,8,7.99.01l8,8L16,10H0Z" transform="translate(1248 1073.99)" fill="#fff"/>
    <path id="line-80" data-name="line" d="M0,8,7.99.01l8,8L16,10H0Z" transform="translate(1264 1073.99)" fill="#fff"/>
    <path id="line-81" data-name="line" d="M0,8,7.99.01l8,8L16,10H0Z" transform="translate(1280 1073.99)" fill="#fff"/>
    <path id="line-82" data-name="line" d="M0,8,7.99.01l8,8L16,10H0Z" transform="translate(1296 1073.99)" fill="#fff"/>
    <path id="line-83" data-name="line" d="M0,8,7.99.01l8,8L16,10H0Z" transform="translate(1312 1073.99)" fill="#fff"/>
    <path id="line-84" data-name="line" d="M0,8,7.99.01l8,8L16,10H0Z" transform="translate(1328 1073.99)" fill="#fff"/>
    <path id="line-85" data-name="line" d="M0,8,7.99.01l8,8L16,10H0Z" transform="translate(1344 1073.99)" fill="#fff"/>
    <path id="line-86" data-name="line" d="M0,8,7.99.01l8,8L16,10H0Z" transform="translate(1360 1073.99)" fill="#fff"/>
    <path id="line-87" data-name="line" d="M0,8,7.99.01l8,8L16,10H0Z" transform="translate(1376 1073.99)" fill="#fff"/>
    <path id="line-88" data-name="line" d="M0,8,7.99.01l8,8L16,10H0Z" transform="translate(1392 1073.99)" fill="#fff"/>
    <path id="line-89" data-name="line" d="M0,8,7.99.01l8,8L16,10H0Z" transform="translate(1408 1073.99)" fill="#fff"/>
    <path id="line-90" data-name="line" d="M0,8,7.99.01l8,8L16,10H0Z" transform="translate(1424 1073.99)" fill="#fff"/>
    <path id="line-91" data-name="line" d="M0,8,7.99.01l8,8L16,10H0Z" transform="translate(1440 1073.99)" fill="#fff"/>
    <path id="line-92" data-name="line" d="M0,8,7.99.01l8,8L16,10H0Z" transform="translate(1456 1073.99)" fill="#fff"/>
    <path id="line-93" data-name="line" d="M0,8,7.99.01l8,8L16,10H0Z" transform="translate(1472 1073.99)" fill="#fff"/>
    <path id="line-94" data-name="line" d="M0,8,7.99.01l8,8L16,10H0Z" transform="translate(1488 1073.99)" fill="#fff"/>
    <path id="line-95" data-name="line" d="M0,8,7.99.01l8,8L16,10H0Z" transform="translate(1504 1073.99)" fill="#fff"/>
    <path id="line-96" data-name="line" d="M0,8,7.99.01l8,8L16,10H0Z" transform="translate(1520 1073.99)" fill="#fff"/>
    <path id="line-97" data-name="line" d="M0,8,7.99.01l8,8L16,10H0Z" transform="translate(1536 1073.99)" fill="#fff"/>
    <path id="line-98" data-name="line" d="M0,8,7.99.01l8,8L16,10H0Z" transform="translate(1552 1073.99)" fill="#fff"/>
    <path id="line-99" data-name="line" d="M0,8,7.99.01l8,8L16,10H0Z" transform="translate(1568 1073.99)" fill="#fff"/>
    <path id="line-100" data-name="line" d="M0,8,7.99.01l8,8L16,10H0Z" transform="translate(1584 1073.99)" fill="#fff"/>
    <path id="line-101" data-name="line" d="M0,8,7.99.01l8,8L16,10H0Z" transform="translate(1600 1073.99)" fill="#fff"/>
    <path id="line-102" data-name="line" d="M0,8,7.99.01l8,8L16,10H0Z" transform="translate(1616 1073.99)" fill="#fff"/>
    <path id="line-103" data-name="line" d="M0,8,7.99.01l8,8L16,10H0Z" transform="translate(1632 1073.99)" fill="#fff"/>
    <path id="line-104" data-name="line" d="M0,8,7.99.01l8,8L16,10H0Z" transform="translate(1648 1073.99)" fill="#fff"/>
    <path id="line-105" data-name="line" d="M0,8,7.99.01l8,8L16,10H0Z" transform="translate(1664 1073.99)" fill="#fff"/>
    <path id="line-106" data-name="line" d="M0,8,7.99.01l8,8L16,10H0Z" transform="translate(1680 1073.99)" fill="#fff"/>
    <path id="line-107" data-name="line" d="M0,8,7.99.01l8,8L16,10H0Z" transform="translate(1696 1073.99)" fill="#fff"/>
    <path id="line-108" data-name="line" d="M0,8,7.99.01l8,8L16,10H0Z" transform="translate(1712 1073.99)" fill="#fff"/>
    <path id="line-109" data-name="line" d="M0,8,7.99.01l8,8L16,10H0Z" transform="translate(1728 1073.99)" fill="#fff"/>
    <path id="line-110" data-name="line" d="M0,8,7.99.01l8,8L16,10H0Z" transform="translate(1744 1073.99)" fill="#fff"/>
    <path id="line-111" data-name="line" d="M0,8,7.99.01l8,8L16,10H0Z" transform="translate(1760 1073.99)" fill="#fff"/>
    <path id="line-112" data-name="line" d="M0,8,7.99.01l8,8L16,10H0Z" transform="translate(1776 1073.99)" fill="#fff"/>
    <path id="line-113" data-name="line" d="M0,8,7.99.01l8,8L16,10H0Z" transform="translate(1792 1073.99)" fill="#fff"/>
    <path id="line-114" data-name="line" d="M0,8,7.99.01l8,8L16,10H0Z" transform="translate(1808 1073.99)" fill="#fff"/>
    <path id="line-115" data-name="line" d="M0,8,7.99.01l8,8L16,10H0Z" transform="translate(1824 1073.99)" fill="#fff"/>
    <path id="line-116" data-name="line" d="M0,8,7.99.01l8,8L16,10H0Z" transform="translate(1840 1073.99)" fill="#fff"/>
    <path id="line-117" data-name="line" d="M0,8,7.99.01l8,8L16,10H0Z" transform="translate(1856 1073.99)" fill="#fff"/>
    <path id="line-118" data-name="line" d="M0,8,7.99.01l8,8L16,10H0Z" transform="translate(1872 1073.99)" fill="#fff"/>
    <path id="line-119" data-name="line" d="M0,8,7.99.01l8,8L16,10H0Z" transform="translate(1888 1073.99)" fill="#fff"/>
    <path id="line-120" data-name="line" d="M0,8,7.99.01l8,8L16,10H0Z" transform="translate(1904 1073.99)" fill="#fff"/>
  </g>
</svg>
